<?xml version="1.0" encoding="UTF-8" standalone="no"?>
<!-- Created with Inkscape (http://www.inkscape.org/) -->

<svg
   width="210mm"
   height="297mm"
   viewBox="0 0 210 297"
   version="1.1"
   id="svg1"
   inkscape:version="1.3.2 (091e20e, 2023-11-25, custom)"
   sodipodi:docname="slot_panel_icons.svg"
   xmlns:inkscape="http://www.inkscape.org/namespaces/inkscape"
   xmlns:sodipodi="http://sodipodi.sourceforge.net/DTD/sodipodi-0.dtd"
   xmlns:xlink="http://www.w3.org/1999/xlink"
   xmlns="http://www.w3.org/2000/svg"
   xmlns:svg="http://www.w3.org/2000/svg">
  <sodipodi:namedview
     id="namedview1"
     pagecolor="#464646"
     bordercolor="#000000"
     borderopacity="0.25"
     inkscape:showpageshadow="2"
     inkscape:pageopacity="0.0"
     inkscape:pagecheckerboard="0"
     inkscape:deskcolor="#d1d1d1"
     inkscape:document-units="mm"
     inkscape:zoom="2.8284271"
     inkscape:cx="13.435029"
     inkscape:cy="-27.400388"
     inkscape:window-width="1920"
     inkscape:window-height="1057"
     inkscape:window-x="-8"
     inkscape:window-y="-8"
     inkscape:window-maximized="1"
     inkscape:current-layer="layer1"
     showguides="true">
    <sodipodi:guide
       position="15.949309,289.00197"
       orientation="0,-1"
       id="guide4"
       inkscape:locked="false" />
  </sodipodi:namedview>
  <defs
     id="defs1">
    <linearGradient
       id="linearGradient20"
       inkscape:collect="always">
      <stop
         style="stop-color:#6ac2f0;stop-opacity:1;"
         offset="0.338"
         id="stop23" />
      <stop
         style="stop-color:#6a98f0;stop-opacity:1;"
         offset="0.53600001"
         id="stop22" />
      <stop
         style="stop-color:#8d5ff2;stop-opacity:1;"
         offset="1"
         id="stop21" />
    </linearGradient>
    <linearGradient
       inkscape:collect="always"
       xlink:href="#linearGradient20"
       id="linearGradient22"
       x1="44.625851"
       y1="0.94207233"
       x2="44.625851"
       y2="6.2740998"
       gradientUnits="userSpaceOnUse"
       spreadMethod="repeat" />
  </defs>
  <g
     inkscape:label="Camada 1"
     inkscape:groupmode="layer"
     id="layer1">
    <path
       style="fill:none;stroke:#c1c1c1;stroke-width:1.242;stroke-linecap:round;stroke-dasharray:none;stroke-opacity:1"
       d="m 1.9719354,2.3619794 c 0,0 1.5833726,2.2842299 1.9943656,2.2842299 0.4109932,0 1.9943658,-2.2842299 1.9943658,-2.2842299"
       id="path1"
       sodipodi:nodetypes="czc" />
    <path
       style="fill:none;stroke:#c1c1c1;stroke-width:1.242;stroke-linecap:round;stroke-dasharray:none;stroke-opacity:1"
       d="m 9.5949377,5.4984599 c 0,0 2.2842293,-1.5833726 2.2842293,-1.9943656 0,-0.4109932 -2.2842293,-1.9943656 -2.2842293,-1.9943656"
       id="path2"
       sodipodi:nodetypes="czc" />
    <path
       id="rect1"
       style="fill:#c1c1c1;fill-opacity:1;stroke-width:1.47077;stroke-linecap:round;stroke-linejoin:round"
       d="m 16.243453,0.80253499 c -0.648594,0 -0.921382,0.43304421 -0.931726,0.91518961 h -0.992188 c -0.245483,0 -0.443383,0.1984177 -0.443383,0.4439006 v 0.08785 c 0,0.2147977 0.151644,0.3928419 0.353983,0.434082 h 5.567102 c 0.202225,-0.04124 0.353467,-0.2192843 0.353467,-0.434082 v -0.08785 c 0,-0.2454831 -0.197383,-0.4439006 -0.442867,-0.4439006 H 18.807638 C 18.796769,1.2107823 18.511477,0.80253499 17.775142,0.80253499 Z M 14.633215,3.0060181 v 2.7590047 c 0,0.7462686 0.600938,1.3466878 1.347205,1.3466878 h 2.020548 c 0.746268,0 1.346688,-0.6004192 1.346688,-1.3466878 V 3.0060181 Z M 15.59078,3.354834 h 0.113171 c 0.238541,0 0.430981,0.197384 0.430981,0.442867 v 2.0794596 c 0,0.2454833 -0.19244,0.4433838 -0.430981,0.4433838 H 15.59078 c -0.238541,0 -0.429948,-0.1979005 -0.429948,-0.4433838 V 3.797701 c 0,-0.245483 0.191407,-0.442867 0.429948,-0.442867 z m 2.682006,0 h 0.113172 c 0.238541,0 0.430981,0.197384 0.430981,0.442867 v 2.0794596 c 0,0.2454833 -0.19244,0.4433838 -0.430981,0.4433838 h -0.113172 c -0.23854,0 -0.429947,-0.1979005 -0.429947,-0.4433838 V 3.797701 c 0,-0.245483 0.191407,-0.442867 0.429947,-0.442867 z m -1.315682,0.037207 h 0.113172 c 0.238541,0 0.429948,0.1979005 0.429948,0.4433838 v 2.2551595 c 0,0.2454833 -0.191407,0.4423503 -0.429948,0.4423503 h -0.113172 c -0.238539,0 -0.430464,-0.196867 -0.430464,-0.4423503 V 3.8354248 c 0,-0.2454833 0.191925,-0.4433841 0.430464,-0.4433838 z" />
    <path
       id="path3"
       style="color:#000000;fill:#c1c1c1;fill-opacity:1;stroke-linecap:round;-inkscape-stroke:none"
       d="m 25.073499,1.7485736 c -0.07473,-2.978e-4 -0.149371,0.00288 -0.223759,0.0093 -0.5951,0.051409 -1.172165,0.3180735 -1.601452,0.7890991 l -0.06666,0.072347 c -0.200107,0.2195632 -0.356224,0.4540169 -0.476457,0.668693 l -0.0553,-0.3110903 A 0.328163,0.328163 0 0 0 22.269019,2.7113055 0.328163,0.328163 0 0 0 22.003402,3.0921608 l 0.308509,1.7482137 1.62729,-0.6661092 a 0.328163,0.328163 0 0 0 0.179834,-0.4273641 0.328163,0.328163 0 0 0 -0.42788,-0.179834 L 23.34854,3.7071104 c 0.09894,-0.1841209 0.230362,-0.3893056 0.397392,-0.5725749 l 0.06873,-0.073897 c 0.594616,-0.6524281 1.581237,-0.7361259 2.278931,-0.1953369 l 0.264066,0.2030883 A 0.38249999,0.38249999 0 0 0 26.894577,3.001727 0.38249999,0.38249999 0 0 0 26.826364,2.4648089 L 26.562297,2.2596535 C 26.121555,1.91803 25.596596,1.7506581 25.073499,1.7485736 Z m 2.844271,1.6955037 -1.625224,0.6640422 a 0.328163,0.328163 0 0 0 -0.179834,0.4273641 0.328163,0.328163 0 0 0 0.427881,0.1798339 L 26.879074,4.5768247 C 26.779922,4.760785 26.649055,4.9657413 26.483232,5.1499163 L 26.327169,5.3240659 C 25.737116,5.9794261 24.763213,6.1020841 24.028085,5.6150042 L 23.850318,5.4976987 a 0.38249999,0.38249999 0 0 0 -0.529167,0.107487 0.38249999,0.38249999 0 0 0 0.107487,0.5312337 l 0.1757,0.1173055 c 0.523201,0.3466614 1.13569,0.4749934 1.722376,0.4004924 0.586685,-0.074501 1.14843,-0.3521261 1.568379,-0.8185547 l 0.15658,-0.1736328 C 27.2504,5.4413077 27.405954,5.2058734 27.526063,4.9912697 l 0.05581,0.3141927 a 0.328163,0.328163 0 0 0 0.380855,0.2656169 0.328163,0.328163 0 0 0 0.265617,-0.3808553 z"
       transform="translate(0.19369248,-0.3228208)" />
    <path
       style="fill:#c1c1c1;fill-opacity:1;stroke:none;stroke-width:0.765;stroke-linecap:round;stroke-dasharray:none;stroke-opacity:1"
       d="m 33.64046,1.3229166 c -0.304603,-0.0024 -1.743128,1.7697234 -1.743128,3.1843017 0,1.4145783 1.345123,1.5263593 1.74313,1.5263593 0.398007,0 1.67787,-0.1035805 1.67787,-1.5273928 0,-1.4238123 -1.373269,-3.1808664 -1.677872,-3.1832682 z"
       id="path13"
       sodipodi:nodetypes="zzzzz" />
    <path
       style="fill:#c1c1c1;fill-opacity:1;stroke:#000000;stroke-width:0.265;stroke-linecap:round;stroke-dasharray:none;stroke-opacity:1"
       d="m 40.023533,1.3229166 c -0.304603,-0.0024 -1.743128,1.7697234 -1.743128,3.1843017 0,1.4145783 1.345123,1.5263593 1.74313,1.5263593 0.398007,0 1.67787,-0.1035805 1.67787,-1.5273928 0,-1.4238123 -1.373269,-3.1808664 -1.677872,-3.1832682 z"
       id="path14"
       sodipodi:nodetypes="zzzzz" />
    <path
       style="fill:url(#linearGradient22);fill-opacity:1;stroke:#000000;stroke-width:0.265;stroke-linecap:round;stroke-dasharray:none;stroke-opacity:1"
       d="m 46.501478,1.3229166 c -0.304603,-0.0024 -1.743128,1.7697234 -1.743128,3.1843017 0,1.4145783 1.345123,1.5263593 1.74313,1.5263593 0.398007,0 1.67787,-0.1035805 1.67787,-1.5273928 0,-1.4238123 -1.373269,-3.1808664 -1.677872,-3.1832682 z"
       id="path15"
       sodipodi:nodetypes="zzzzz" />
    <rect
       style="fill:#c1c1c1;stroke:none;stroke-width:0.264999;stroke-linecap:round"
       id="rect3"
       width="1.07576"
       height="4.2094946"
       x="-11.675615"
       y="1.8241149"
       transform="rotate(-90)"
       rx="0.39756343"
       ry="0.39756343" />
    <rect
       style="fill:#c1c1c1;stroke:none;stroke-width:0.264999;stroke-linecap:round"
       id="rect4"
       width="1.07576"
       height="4.2094946"
       x="-4.466742"
       y="-13.242482"
       transform="scale(-1)"
       rx="0.39756343"
       ry="0.39756343" />
  </g>
</svg>
